<?xml version="1.0" standalone="no"?><!DOCTYPE svg PUBLIC "-//W3C//DTD SVG 1.1//EN" "http://www.w3.org/Graphics/SVG/1.1/DTD/svg11.dtd"><svg class="icon" height="512" viewBox="0 0 1024 1024" version="1.1" xmlns="http://www.w3.org/2000/svg"><path d="M810.666667 85.333333H213.333333a85.333333 85.333333 0 0 0-85.333333 85.333334v597.333333a85.333333 85.333333 0 0 0 85.333333 85.333333h170.666667l128 128 128-128h170.666667c46.933333 0 85.333333-38.4 85.333333-85.333333V170.666667c0-46.933333-38.4-85.333333-85.333333-85.333334z m-298.666667 140.8c63.573333 0 115.2 51.626667 115.2 115.2 0 63.573333-51.626667 115.2-115.2 115.2-63.573333 0-115.2-51.626667-115.2-115.2 0-63.573333 51.626667-115.2 115.2-115.2zM768 682.666667H256v-38.4c0-85.333333 170.666667-132.266667 256-132.266667s256 46.933333 256 132.266667v38.4z" /></svg>